<?xml version="1.0"?>
<svg width="16" height="16" xmlns="http://www.w3.org/2000/svg" xmlns:svg="http://www.w3.org/2000/svg">
 <g class="layer">
  <title>Layer 1</title>
  <path d="m10.09,10.97l3.84,3.85c0.06,0.06 0.13,0.1 0.21,0.13c0.07,0.04 0.15,0.05 0.24,0.05c0.08,0 0.16,-0.02 0.23,-0.05c0.08,-0.03 0.15,-0.08 0.21,-0.13c0.06,-0.06 0.1,-0.13 0.13,-0.21c0.03,-0.07 0.05,-0.15 0.05,-0.24c0,-0.08 -0.02,-0.16 -0.05,-0.24c-0.03,-0.07 -0.08,-0.14 -0.13,-0.2l-3.84,-3.83l0.01,-0.43c0.5,-0.7 0.83,-1.52 0.95,-2.37c0.13,-0.86 0.05,-1.73 -0.23,-2.55c-0.27,-0.82 -0.74,-1.57 -1.35,-2.18c-0.62,-0.6 -1.37,-1.05 -2.19,-1.32c-0.83,-0.26 -1.7,-0.32 -2.56,-0.18c-0.85,0.14 -1.66,0.48 -2.36,0.99c-0.7,0.51 -1.27,1.18 -1.66,1.95c-0.39,0.77 -0.59,1.62 -0.59,2.49c0,1.46 0.58,2.86 1.61,3.89c1.03,1.03 2.43,1.61 3.89,1.61c1.19,0 2.29,-0.38 3.19,-1.02l0.4,-0.01l0,0zm-3.59,-0.22c-2.34,0 -4.25,-1.91 -4.25,-4.25c0,-2.34 1.91,-4.25 4.25,-4.25c2.34,0 4.25,1.91 4.25,4.25c0,2.34 -1.91,4.25 -4.25,4.25z" fill="black" id="svg_1"/>
  <text fill="#000000" font-family="Sans-serif" font-size="7" font-weight="bold" id="svg_2" stroke="#000000" stroke-width="0" text-anchor="middle" x="6.54" xml:space="preserve" y="8.63">A</text>
 </g>
</svg>