<?xml version="1.0" standalone="no"?>
<!DOCTYPE svg PUBLIC "-//W3C//DTD SVG 20010904//EN"
 "http://www.w3.org/TR/2001/REC-SVG-20010904/DTD/svg10.dtd">
<svg version="1.0" xmlns="http://www.w3.org/2000/svg"
 width="350.000000pt" height="350.000000pt" viewBox="0 0 350.000000 350.000000"
 preserveAspectRatio="xMidYMid meet">
<metadata>
Created by potrace 1.14, written by Peter Selinger 2001-2017
</metadata>
<g transform="translate(0.000000,350.000000) scale(0.100000,-0.100000)"
fill="#000000" stroke="none">
<path d="M0 1750 l0 -1750 1750 0 1750 0 0 1750 0 1750 -1750 0 -1750 0 0
-1750z m1834 1406 c20 -18 36 -38 36 -45 0 -6 5 -11 10 -11 6 0 10 -6 10 -14
0 -8 20 -34 45 -59 25 -26 45 -53 45 -60 0 -8 16 -27 35 -43 19 -15 35 -33 35
-40 0 -7 5 -14 12 -16 6 -2 12 -22 13 -43 1 -28 7 -40 22 -46 23 -8 96 -107
96 -129 0 -8 5 -18 11 -22 6 -4 9 -21 8 -37 -3 -27 0 -30 32 -36 22 -5 33 -12
30 -20 -3 -7 4 -15 15 -18 12 -3 21 -13 21 -24 0 -11 11 -26 25 -33 14 -7 25
-22 25 -33 0 -13 5 -17 15 -13 8 3 15 1 15 -4 0 -6 -7 -10 -16 -10 -8 0 -12
-5 -9 -11 4 -6 13 -8 21 -5 9 4 18 -4 24 -19 5 -14 14 -25 20 -25 18 0 -9 -40
-28 -41 -10 0 -3 -7 16 -15 26 -11 32 -19 27 -34 -5 -15 -3 -18 9 -14 17 7 36
-30 36 -68 0 -12 7 -29 15 -38 13 -14 14 -22 4 -43 -10 -21 -9 -30 2 -43 12
-15 14 -14 21 3 5 11 7 3 3 -22 -4 -33 -1 -43 16 -53 13 -8 18 -19 15 -29 -4
-8 -1 -32 5 -53 8 -27 8 -43 0 -58 -9 -17 -8 -27 4 -46 22 -34 27 -66 9 -66
-17 0 -19 -27 -2 -32 9 -3 9 -12 -1 -35 -7 -18 -10 -41 -6 -53 4 -12 1 -27 -5
-35 -10 -12 -9 -15 5 -15 9 0 15 -6 13 -12 -3 -7 -11 -13 -19 -13 -9 0 -14
-11 -14 -32 0 -17 -8 -40 -17 -50 -10 -11 -18 -26 -18 -33 0 -18 -30 -50 -47
-50 -7 0 -13 -11 -13 -26 0 -15 -13 -41 -30 -61 -16 -18 -30 -38 -30 -43 0 -5
-21 -18 -47 -30 l-47 -21 -20 21 c-18 18 -19 22 -6 30 8 5 10 10 4 10 -9 0
-12 33 -4 50 1 3 1 15 1 26 -1 12 5 28 13 37 9 9 16 23 16 31 0 9 4 16 10 16
5 0 7 7 4 15 -4 8 1 30 10 49 8 18 17 47 18 64 2 25 6 31 23 28 11 -2 14 -1 7
1 -8 3 -11 17 -8 43 2 21 1 55 -4 75 -7 32 -6 35 11 30 27 -9 24 4 -3 15 -22
8 -21 9 7 10 19 0 26 3 17 8 -8 5 -10 16 -5 28 6 17 5 17 -10 5 -15 -12 -18
-10 -26 10 -7 18 -5 27 7 37 12 9 13 15 6 20 -17 11 -22 35 -13 58 6 17 3 23
-12 27 -23 6 -25 42 -3 65 15 14 15 16 -5 24 -11 4 -21 16 -21 26 0 22 -22 72
-32 72 -5 0 -8 5 -8 11 0 5 4 8 9 4 5 -3 12 -1 16 5 3 5 0 11 -7 12 -7 0 -17
2 -23 3 -5 2 -14 3 -19 4 -5 0 -2 9 5 18 8 10 9 14 2 10 -6 -4 -14 -3 -17 2
-4 5 -1 13 6 17 9 6 5 10 -12 14 -14 3 -29 16 -35 28 -7 17 -16 22 -32 19 -13
-2 -23 0 -23 4 0 5 -8 18 -17 29 -12 14 -20 16 -29 9 -9 -7 -19 -7 -33 1 -27
14 -27 33 -1 25 11 -4 20 -2 20 4 0 6 -13 11 -30 11 -20 0 -30 5 -30 15 0 12
-5 13 -17 7 -22 -11 -46 -4 -37 10 4 6 -2 5 -15 -1 -24 -13 -25 -15 -10 -43 9
-16 7 -23 -10 -35 -25 -17 -27 -41 -6 -49 10 -4 13 -13 10 -24 -3 -10 0 -20 9
-23 21 -8 17 -157 -4 -174 -8 -6 -12 -15 -8 -19 4 -4 0 -13 -10 -21 -16 -12
-16 -14 2 -28 12 -9 17 -21 13 -35 -4 -17 -3 -19 9 -9 11 9 14 9 14 -1 0 -7
-8 -19 -17 -26 -17 -13 -17 -13 0 -14 21 0 23 -33 3 -52 -11 -12 -11 -17 0
-33 19 -26 18 -28 -17 -49 -30 -18 -30 -18 -10 -33 12 -8 26 -11 32 -8 6 4 5
-3 -3 -14 -11 -18 -11 -23 1 -31 11 -6 15 -30 16 -84 1 -41 -2 -73 -6 -70 -5
3 -6 -2 -3 -10 3 -9 1 -16 -5 -16 -7 0 -9 -9 -5 -25 4 -18 3 -25 -6 -23 -20 5
-22 -16 -2 -37 30 -33 33 -52 9 -59 -20 -6 -21 -7 -4 -17 19 -11 23 -35 6 -41
-7 -2 -7 -12 1 -32 6 -16 8 -37 5 -46 -3 -10 1 -20 9 -23 13 -5 13 -12 4 -37
-8 -23 -7 -35 1 -43 14 -14 15 -147 1 -147 -5 0 -10 -7 -10 -16 0 -13 -3 -14
-14 -5 -12 10 -14 6 -11 -24 2 -19 -2 -41 -9 -48 -7 -6 -18 -33 -25 -60 -13
-44 -31 -72 -31 -47 0 6 -4 9 -10 5 -5 -3 -6 -13 -3 -22 5 -13 2 -15 -11 -10
-12 5 -16 3 -13 -5 2 -7 -2 -21 -11 -31 -8 -9 -12 -20 -8 -24 4 -4 11 -1 16 7
14 22 12 -4 -2 -35 -6 -14 -19 -25 -28 -25 -9 0 -22 -11 -28 -25 -7 -15 -17
-22 -26 -19 -8 3 -17 1 -21 -5 -4 -7 0 -8 11 -4 12 4 15 2 12 -8 -3 -8 -18
-14 -34 -15 -22 0 -29 -5 -27 -18 1 -12 -11 -23 -34 -32 -19 -9 -38 -13 -41
-10 -2 3 3 8 12 12 9 3 16 10 16 15 0 14 -26 10 -40 -6 -7 -9 -15 -13 -18 -10
-3 3 -14 -3 -24 -12 -14 -12 -36 -17 -81 -16 -97 1 -97 1 -90 20 6 14 3 14
-24 -2 -27 -16 -35 -16 -74 -4 -34 11 -43 19 -41 33 2 13 -1 17 -10 13 -8 -3
-20 4 -26 14 -7 10 -20 19 -30 19 -14 -1 -13 -4 7 -20 30 -26 8 -26 -34 0 -34
21 -49 45 -39 62 3 5 -4 20 -16 33 -22 23 -29 61 -19 95 2 8 -1 14 -7 13 -15
-3 -24 41 -13 59 7 10 9 9 9 -4 0 -20 15 -24 25 -8 3 6 1 10 -6 10 -7 0 -9 10
-5 30 3 17 1 30 -4 30 -18 0 -10 57 11 83 11 15 21 37 22 49 2 13 8 33 15 46
11 19 16 21 28 11 13 -11 14 -9 8 15 -6 27 -6 28 17 15 22 -11 23 -11 11 4
-19 22 2 60 27 52 12 -3 21 0 25 10 3 8 11 14 17 13 6 -2 14 3 17 11 3 10 0
12 -12 8 -28 -11 -17 10 16 31 23 15 36 18 45 11 8 -7 16 -3 28 15 14 20 21
24 35 16 25 -13 30 -13 24 3 -6 18 13 34 51 42 28 6 29 6 11 -9 -28 -23 -12
-32 19 -12 15 10 33 15 41 12 8 -3 14 1 14 10 0 12 12 14 58 12 98 -4 132 1
132 17 0 9 6 12 18 8 16 -6 16 -5 0 14 -10 11 -18 31 -18 46 0 14 8 31 18 36
13 9 14 12 4 19 -11 7 -10 12 3 26 14 13 14 16 2 16 -9 0 -18 -6 -20 -12 -3
-7 -6 1 -6 19 -1 17 4 33 10 35 9 3 9 10 0 27 -10 18 -10 27 2 45 14 20 13 23
-3 34 -12 7 -16 18 -13 32 4 16 8 18 19 9 12 -9 13 -6 7 22 -3 19 -9 36 -13
39 -10 7 -10 161 0 155 5 -3 8 3 7 14 0 11 -5 17 -9 15 -4 -3 -8 4 -8 15 0 11
8 25 18 30 14 9 14 12 3 20 -8 5 -11 17 -7 29 4 11 2 23 -4 27 -5 3 -10 -2
-10 -12 -1 -17 -1 -17 -11 0 -13 22 -5 47 15 47 13 0 13 4 -2 29 -16 28 -15
31 2 50 16 17 16 21 4 21 -17 0 -31 47 -17 56 5 3 9 0 9 -5 0 -6 4 -11 9 -11
4 0 8 13 7 30 -1 16 -6 30 -12 30 -8 0 -12 28 -12 84 0 77 2 84 19 81 27 -5
24 2 -8 20 l-28 16 28 -4 c22 -3 25 -2 16 9 -6 7 -16 12 -22 11 -19 -4 -19 34
0 55 10 12 13 18 6 15 -6 -4 -14 -3 -17 2 -8 12 23 43 35 36 5 -4 9 -2 9 4 0
15 -18 23 -22 9 -3 -8 -7 -6 -11 5 -5 12 -1 17 13 17 25 0 25 5 0 41 -19 26
-20 30 -5 52 15 23 14 25 -4 30 -15 3 -19 11 -16 27 2 13 7 25 11 29 4 3 4 -2
1 -12 -5 -13 -3 -17 5 -15 17 6 17 66 0 73 -7 3 -12 21 -11 47 1 24 -2 60 -6
82 -5 27 -4 36 4 32 15 -10 14 7 -1 22 -9 9 -9 12 2 12 10 0 9 4 -3 18 -25 28
-21 66 12 101 16 17 34 31 39 31 6 0 27 -15 46 -34z m133 -882 c-3 -3 -12 -4
-19 -1 -8 3 -5 6 6 6 11 1 17 -2 13 -5z m573 -194 c0 -5 -4 -10 -10 -10 -5 0
-10 5 -10 10 0 6 5 10 10 10 6 0 10 -4 10 -10z m-570 -116 c0 -8 -4 -12 -10
-9 -5 3 -10 10 -10 16 0 5 5 9 10 9 6 0 10 -7 10 -16z m10 -564 c0 -5 -5 -10
-11 -10 -5 0 -7 5 -4 10 3 6 8 10 11 10 2 0 4 -4 4 -10z"/>
<path d="M2560 1763 c0 -4 5 -15 10 -23 8 -13 10 -13 10 2 0 9 -4 20 -10 23
-5 3 -10 3 -10 -2z"/>
<path d="M1940 1150 c20 -13 33 -13 25 0 -3 6 -14 10 -23 10 -15 0 -15 -2 -2
-10z"/>
</g>
</svg>
